<svg id="Layer_1" data-name="Layer 1" xmlns="http://www.w3.org/2000/svg" viewBox="0 0 400 300" width="406" height="306" class="illustration styles_illustrationTablet__1DWOa"><path d="M139.56,55.72c-45,10.7-80.56,44.51-91,88-7.76,32.36-2,71.94,51.25,77.84,114.3,12.67,236.05,5.08,250.65-47.37S336.69,44.22,272.16,38.65C235.41,35.49,180.25,46,139.56,55.72Z" fill="#e6e6e6" opacity="0.3"></path><rect x="127.14" y="119.56" width="21.92" height="4.07" transform="translate(-15.34 20.04) rotate(-7.87)" fill="#e6e6e6"></rect><rect x="124.12" y="115.1" width="5.31" height="15.56" rx="2.66" transform="translate(-15.62 18.51) rotate(-7.87)" fill="#e6e6e6"></rect><rect x="148.89" y="111.67" width="5.31" height="15.56" rx="2.66" transform="matrix(0.99, -0.14, 0.14, 0.99, -14.92, 21.86)" fill="#e6e6e6"></rect><polygon points="168.51 193.06 148.96 191.39 148.7 198.88 168.52 201.11 168.51 193.06" fill="#f4a28c"></polygon><path d="M232,125a40.76,40.76,0,0,0,32.4-8.61s-.21-9,6.56-9.84,8.82,9.64,2.46,13.33-22.32,25-46,21.12S222.34,118.68,232,125Z" fill="#f4a28c"></path><path d="M232,125a40.76,40.76,0,0,0,32.4-8.61s-.21-9,6.56-9.84,8.82,9.64,2.46,13.33-22.32,25-46,21.12S222.34,118.68,232,125Z" opacity="0.08"></path><polygon points="213.54 59.33 207.61 80.24 218.32 85.13 217.86 67.09 213.54 59.33" fill="#f4a28c"></polygon><path d="M218,70.28a26.11,26.11,0,0,1-5.7-2.55,10.91,10.91,0,0,0,5.83,9.16Z" fill="#ce8172" opacity="0.31"></path><path d="M222,57s2.09,7.09,1.85,12.13a3.71,3.71,0,0,1-3.91,3.52c-2.54-.16-5.93-1.11-7.51-4.77L209,62a6.64,6.64,0,0,1,1.46-7.53C213.9,50.73,220.91,52.65,222,57Z" fill="#f4a28c"></path><path d="M223.05,61.56l2.58,2.38a1.18,1.18,0,0,1-.36,2L222.61,67Z" fill="#f4a28c"></path><path d="M220.69,53.66s4.76,6.55-5.17,11.12l-5.58,5.08s-5.05-5-5.64-10.8S214.46,43.72,220.69,53.66Z" fill="#24285b"></path><path d="M215.52,64.78s-.62-2.77-2.67-2.13-1.18,4.65,1.74,4.45Z" fill="#f4a28c"></path><path d="M244.49,124.15C238.13,143.64,210,169.34,210,169.34l-21.87-9.68-17.09-7.56a.69.69,0,0,0,.05-.1l0-.11a2.35,2.35,0,0,1,.11-.24c.45-1,1.55-3.4,2.94-6.86l.05-.14c.5-1.27,1-2.67,1.62-4.19,0-.05,0-.11.05-.15,3.59-9.7,7.95-24,8.66-37.83.56-10.92,5.08-16.77,9.83-19.9A22.53,22.53,0,0,1,206.16,79l15.31,7S250.85,104.68,244.49,124.15Z" fill="#bf68fc"></path><path d="M188.16,159.66l-17.09-7.56a.69.69,0,0,0,.05-.1.21.21,0,0,1,0-.11,2.35,2.35,0,0,1,.11-.24c.48-1.11,1.79-4.08,2.94-6.86l.05-.14c.66-1.6,1.26-3.12,1.62-4.19,0-.05,0-.11.05-.15,3.59-9.7,7.95-24,8.66-37.83.56-10.92,5.08-16.77,9.83-19.9l13.19-2.34s23.79,28.5-.39,38.85C187.39,127.58,189.86,152.66,188.16,159.66Z" opacity="0.08"></path><path d="M224.72,206.39l.13,26.35h-8.79s-1.81-26.88-8.08-44.88l10.64-3.92S226.33,197,224.72,206.39Z" fill="#f4a28c"></path><path d="M190.32,104c16.53,10.42,33.22-11.8,18.77-24.94-.37-.34-.76-.67-1.15-1-9.55-7.75-20.35-18.63-42.28-14.64S135,82.86,135,109.65c0,0-7.22,18.83,3.83,17.65,9-1,2.56-13.38,2.56-13.38S153.7,90.48,162.79,83C168.26,78.56,177.68,96.06,190.32,104Z" fill="#f4a28c"></path><path d="M171.07,152.11s-7.5,14.11,5.28,23,24.68,2.36,35.6,34.4l13.15-2.31s0-29.73-15.07-37.84Z" fill="#24285b"></path><path d="M221.24,228.05s7-2.87,7.3,1.82l.08,1.39a4.73,4.73,0,0,0,4.48,4.46,12.12,12.12,0,0,0,2.42-.14,2.88,2.88,0,0,1,2,5.27,10.63,10.63,0,0,1-4.06,1.29c-9.13,1.3-16.25,2.35-17.65-1.31S211.84,229.35,221.24,228.05Z" fill="#bf68fc"></path><path d="M151.41,195.91s-.54,7.59-4.87,5.74l-1.28-.54a4.71,4.71,0,0,0-6,2,11.24,11.24,0,0,0-.95,2.23,2.88,2.88,0,0,1-5.63-.5,10.68,10.68,0,0,1,.64-4.21c2.86-8.77,5.07-15.61,9-15.25S154.39,186.9,151.41,195.91Z" fill="#bf68fc"></path><path d="M194.75,169s-2,33.81-17.16,33.81a57,57,0,0,1-10.55-.84l-.59-11.45s12.13-.09,7.4-26.08Z" fill="#24285b"></path><polygon points="270.75 122.52 264.04 116.08 258.03 120.06 265.13 127.7 270.75 122.52" fill="#ffd200"></polygon><path d="M214.52,46.17a11.15,11.15,0,0,0-6.85-7.36,12.47,12.47,0,0,0-10.1.77,8,8,0,0,0-2.33,1.79,7.47,7.47,0,0,0-1.32,2.33A10.88,10.88,0,0,0,197.65,56C204.31,60.73,217,55.23,214.52,46.17Z" fill="#24285b"></path><path d="M141.39,113.92c-.68-.2-7.33-1.4-7.33-1.4l1-6.93,9.81,2Z" fill="#ffd200"></path><rect x="104.48" y="242.43" width="178.78" height="2.73" fill="#ffd200"></rect><path d="M267.22,141.06h7a10,10,0,0,1,9.9,8.83l11.07,95.47H279.32Z" fill="#24285b"></path><path d="M102.12,245.17H294.29a13,13,0,0,1,13,13v0a3.7,3.7,0,0,1-3.7,3.7H92.77a3.7,3.7,0,0,1-3.7-3.7v0a13,13,0,0,1,13-13Z" fill="#24285b"></path><rect x="245.07" y="149.74" width="33.9" height="5.88" rx="2.94" fill="#ffd200"></rect><rect x="259.35" y="109.44" width="21.92" height="4.07" transform="translate(118.13 -138.2) rotate(36.23)" fill="#e6e6e6"></rect><rect x="258.63" y="96.73" width="5.31" height="15.56" rx="2.66" transform="translate(112.27 -134.21) rotate(36.23)" fill="#e6e6e6"></rect><rect x="278.8" y="111.51" width="5.31" height="15.56" rx="2.66" transform="translate(124.91 -143.28) rotate(36.23)" fill="#e6e6e6"></rect><path d="M270.82,109.74a2.48,2.48,0,0,1,1.47.42.93.93,0,0,1,.18,1.35,1.35,1.35,0,0,1-.64.27l-3.59.86a4.26,4.26,0,0,1,1.61,2.36,3,3,0,0,1-.69,2.71,2.25,2.25,0,0,1-2.67.41,2.89,2.89,0,0,1-1.2-1.9,7.77,7.77,0,0,1,.6-4.5C266.8,109.93,269,109.65,270.82,109.74Z" fill="#f4a28c"></path><path d="M270.82,109.74a2.48,2.48,0,0,1,1.47.42.93.93,0,0,1,.18,1.35,1.35,1.35,0,0,1-.64.27l-3.59.86a4.26,4.26,0,0,1,1.61,2.36,3,3,0,0,1-.69,2.71,2.25,2.25,0,0,1-2.67.41,2.89,2.89,0,0,1-1.2-1.9,7.77,7.77,0,0,1,.6-4.5C266.8,109.93,269,109.65,270.82,109.74Z" opacity="0.08"></path></svg>